<svg width="55" height="55" viewBox="0 0 55 55" fill="none" xmlns="http://www.w3.org/2000/svg">
<path d="M30.6179 32.6823C30.8966 32.3279 31.4436 31.6228 32.154 30.6767C35.3557 26.4112 42.8026 15.9724 42.8026 11.1778C42.8026 5.01482 37.3363 0 30.6179 0C23.8995 0 18.4332 5.01482 18.4332 11.1778C18.4332 15.9724 25.8801 26.4112 29.0819 30.6767C29.7909 31.6215 30.3392 32.3279 30.6179 32.6823ZM22.3608 16.1444C21.2772 13.9589 20.6796 12.1956 20.6796 11.1778C20.6796 6.2594 25.1374 2.25849 30.6179 2.25849C36.0984 2.25849 40.5562 6.2594 40.5562 11.1778C40.5562 12.1956 39.9586 13.9589 38.875 16.1444C37.8898 18.1305 36.5029 20.475 34.7555 23.1114C33.5695 24.8995 32.2473 26.7774 30.8266 28.6932L30.6192 28.9734L30.4118 28.6932C28.9911 26.7774 27.669 24.8995 26.4829 23.1114C24.7343 20.475 23.3486 18.1305 22.3634 16.1444H22.3608Z" fill="url(#paint0_linear_1104_6595)"/>
<path fill-rule="evenodd" clip-rule="evenodd" d="M34.9505 11.3639C34.9505 13.7568 33.0107 15.6966 30.6179 15.6966C28.225 15.6966 26.2852 13.7568 26.2852 11.3639C26.2852 8.9711 28.225 7.03132 30.6179 7.03132C33.0107 7.03132 34.9505 8.9711 34.9505 11.3639ZM33.2174 11.3639C33.2174 12.7997 32.0535 13.9635 30.6179 13.9635C29.1822 13.9635 28.0183 12.7997 28.0183 11.3639C28.0183 9.92823 29.1822 8.76437 30.6179 8.76437C32.0535 8.76437 33.2174 9.92823 33.2174 11.3639Z" fill="url(#paint1_linear_1104_6595)"/>
<path d="M53.3489 33.7705L40.411 22.1392C39.9716 22.7204 39.5063 23.3186 39.0254 23.9233L52.168 35.7371L48.173 37.2905C46.0329 38.1233 44.2427 39.5868 42.9983 41.5247L41.7501 43.4678C40.6794 45.1347 38.8607 46.1303 36.8866 46.1303H31.2246C28.9017 46.1303 26.6851 46.8627 24.8159 48.2481L19.7398 52.0092L19.5817 51.8463L2.16019 33.7744L2.30407 33.5946L5.08451 30.1345C6.04503 28.9394 7.40998 28.1836 8.92917 28.0089L15.1148 27.2961C16.8648 27.0941 18.5551 26.4581 20.0069 25.4546L22.2131 23.9285C21.7296 23.3212 21.2655 22.7231 20.8274 22.1444L18.7327 23.5923C17.5842 24.3873 16.2439 24.8916 14.8582 25.0506L8.67252 25.7635C6.56482 26.0072 4.66842 27.055 3.33588 28.714L0.555438 32.1741C-0.239159 33.1632 -0.174347 34.5981 0.705803 35.5103L17.9679 53.4167C18.4436 53.9106 19.0839 54.183 19.7684 54.183C20.3063 54.183 20.8209 54.0135 21.2539 53.6917L26.1472 50.0661C27.6275 48.9688 29.3826 48.3888 31.2233 48.3888H36.8853C39.6255 48.3888 42.148 47.0074 43.6348 44.6942L44.8831 42.7511C45.8695 41.2172 47.2863 40.0573 48.9818 39.3979L52.5815 37.9982C53.402 37.6789 53.9853 36.9699 54.1422 36.1007C54.3003 35.2314 54.0022 34.3596 53.3476 33.7705H53.3489Z" fill="url(#paint2_linear_1104_6595)"/>
<path d="M9.19359 29.2652C8.3939 29.2465 7.85154 29.2529 7.80131 29.2535L7.79753 29.2535H7.78587C7.397 29.2535 7.07942 28.9407 7.07293 28.5484C7.06645 28.1523 7.38014 27.8265 7.7742 27.8199L7.79156 27.8198C7.89492 27.8186 8.43358 27.8126 9.22859 27.8317C9.62265 27.8408 9.93374 28.1692 9.92467 28.5654C9.9156 28.9551 9.59802 29.2652 9.21174 29.2652H9.19359Z" fill="url(#paint3_linear_1104_6595)"/>
<path d="M13.9689 39.8918C13.838 39.8918 13.7045 39.8553 13.5865 39.7785C13.2547 39.566 13.1575 39.1229 13.3688 38.7893C13.9793 37.8275 14.5393 36.9218 15.0318 36.0968C15.2353 35.758 15.6722 35.6472 16.0105 35.8518C16.3475 36.0564 16.4564 36.4956 16.2542 36.8358C15.7538 37.6711 15.1874 38.5886 14.5704 39.5608C14.4343 39.7745 14.2035 39.8918 13.9689 39.8918Z" fill="url(#paint4_linear_1104_6595)"/>
<path d="M17.2147 34.4144C17.1019 34.4144 16.9879 34.387 16.8816 34.331C16.5342 34.1459 16.4007 33.7119 16.586 33.3614C17.0099 32.5586 17.3197 31.8965 17.5064 31.3948C17.5362 31.3127 17.5517 31.2384 17.5517 31.1745C17.5517 31.1237 17.5427 31.0781 17.5232 31.0312C17.369 30.6663 17.5388 30.2453 17.9004 30.0916C18.2634 29.9365 18.6821 30.1072 18.835 30.4708C18.9296 30.695 18.9776 30.9321 18.9776 31.1745C18.9776 31.4169 18.9322 31.6554 18.8415 31.8978C18.6328 32.4569 18.2971 33.1763 17.846 34.0338C17.7177 34.2762 17.4714 34.4144 17.216 34.4144H17.2147Z" fill="url(#paint5_linear_1104_6595)"/>
<path d="M15.5024 29.9469C15.4458 29.9468 15.3892 29.9403 15.3326 29.9261C14.5094 29.7228 13.4906 29.5599 12.3045 29.4452C11.9131 29.4074 11.6253 29.0568 11.6629 28.6632C11.7005 28.2697 12.0518 27.9803 12.4406 28.0181C13.6954 28.1406 14.783 28.314 15.6722 28.5342C16.0546 28.6293 16.2879 29.0177 16.1933 29.4022C16.113 29.7288 15.8233 29.9463 15.5024 29.9469Z" fill="url(#paint6_linear_1104_6595)"/>
<path d="M15.5024 29.9469L15.5037 29.9469H15.5011L15.5024 29.9469Z" fill="url(#paint7_linear_1104_6595)"/>
<path d="M10.9227 43.5174C11.0614 43.6685 11.252 43.7467 11.4451 43.7467C11.5683 43.7467 11.6914 43.7155 11.8029 43.6503C11.8068 43.6477 12.2514 43.3897 13.0071 43.0665C13.3701 42.9114 13.5386 42.4904 13.3843 42.1268C13.2988 41.9261 13.1341 41.7854 12.9436 41.7241C12.9125 41.5352 12.8062 41.3592 12.6351 41.2445C12.3084 41.0256 11.8651 41.1142 11.6473 41.4439C11.2779 42.0026 11.009 42.4003 10.9045 42.5548C10.8737 42.6003 10.8572 42.6248 10.8566 42.626C10.6687 42.9022 10.6959 43.2724 10.9227 43.5174Z" fill="url(#paint8_linear_1104_6595)"/>
<path d="M26.8238 44.0477C26.6825 44.0477 26.5386 44.006 26.4142 43.9174C25.7725 43.4639 25.0933 43.0742 24.3972 42.7602C24.0382 42.5986 23.8774 42.1737 24.0382 41.8127C24.1989 41.4517 24.6215 41.2901 24.9805 41.4517C25.7596 41.8036 26.5179 42.2376 27.2334 42.7445C27.5562 42.9726 27.6327 43.4196 27.4071 43.7428C27.2684 43.9409 27.048 44.0477 26.8238 44.0477Z" fill="url(#paint9_linear_1104_6595)"/>
<path d="M15.0513 42.3119C14.7376 42.3119 14.4512 42.1033 14.3643 41.784C14.2606 41.4022 14.4836 41.0073 14.8634 40.9031C15.7007 40.6724 16.5459 40.5017 17.3755 40.3974C17.7656 40.3479 18.1221 40.6268 18.1714 41.019C18.2206 41.4113 17.9432 41.7697 17.5531 41.8192C16.7909 41.9157 16.0131 42.0721 15.2406 42.2845C15.177 42.3014 15.1135 42.3105 15.0513 42.3105V42.3119Z" fill="url(#paint10_linear_1104_6595)"/>
<path d="M22.3595 42.0395C22.3064 42.0395 22.2532 42.0343 22.2001 42.0212C21.4573 41.8505 20.6809 41.7476 19.8941 41.7163C19.5 41.7006 19.1941 41.367 19.2097 40.9721C19.2252 40.576 19.5558 40.2658 19.9498 40.284C20.8261 40.3192 21.6894 40.4326 22.519 40.6242C22.9027 40.7128 23.1425 41.0972 23.0543 41.483C22.9791 41.8153 22.6849 42.0395 22.3595 42.0395Z" fill="url(#paint11_linear_1104_6595)"/>
<path d="M29.1298 46.4431C29.2672 46.6073 29.4682 46.6973 29.6743 46.6973H29.6756C29.7391 46.6973 29.8039 46.6894 29.8674 46.6712C29.8933 46.6647 30.5155 46.4874 31.3036 46.1264C31.6614 45.9622 31.8196 45.5361 31.6562 45.1764C31.4929 44.8167 31.069 44.6577 30.7113 44.8219C30.4002 44.964 30.1176 45.0747 29.9024 45.1516C29.6756 44.8962 29.4448 44.6512 29.2115 44.4179C28.9315 44.139 28.4804 44.1403 28.203 44.4205C27.9256 44.702 27.9269 45.1555 28.2056 45.4344C28.5206 45.7485 28.8317 46.0886 29.1298 46.4431Z" fill="url(#paint12_linear_1104_6595)"/>
<path d="M33.4022 44.5025C33.2402 44.5025 33.0769 44.4465 32.9434 44.3331C32.6426 44.0777 32.6038 43.6255 32.8578 43.3231C33.2285 42.8813 33.4087 42.4356 33.4087 41.96C33.4087 41.8153 33.3919 41.6641 33.3582 41.5129C33.3258 41.3696 33.305 41.2171 33.2934 41.0607C33.2661 40.6658 33.563 40.3244 33.9557 40.297C34.3459 40.2684 34.6881 40.5681 34.7153 40.963C34.7205 41.0464 34.7322 41.1259 34.7477 41.1976C34.8048 41.453 34.8333 41.7084 34.8333 41.96C34.8333 42.7771 34.5352 43.546 33.9467 44.2471C33.8054 44.4152 33.6045 44.5012 33.4009 44.5012L33.4022 44.5025Z" fill="url(#paint13_linear_1104_6595)"/>
<path d="M34.727 38.8843C34.6259 38.8843 34.5222 38.8622 34.4237 38.8166C34.0672 38.6484 33.9143 38.221 34.0815 37.8626C34.4898 36.9894 35.0407 36.0707 35.6746 35.2053C35.9079 34.886 36.3551 34.8183 36.6714 35.0528C36.9889 35.2874 37.0564 35.737 36.823 36.055C36.2436 36.8461 35.742 37.6815 35.3725 38.4712C35.2507 38.7306 34.994 38.883 34.727 38.883V38.8843Z" fill="url(#paint14_linear_1104_6595)"/>
<path d="M44.5175 36.4512C43.6853 36.4512 42.8713 36.2075 42.1648 35.7475C41.8343 35.5324 41.7397 35.088 41.9549 34.7557C42.1687 34.4234 42.6108 34.3296 42.9413 34.5446C43.4222 34.8587 43.9537 35.0177 44.5175 35.0177C44.7483 35.0177 44.9829 34.9903 45.2188 34.9356C45.6025 34.8456 45.9849 35.088 46.073 35.4738C46.1612 35.8595 45.9214 36.244 45.5377 36.3326C45.1981 36.4108 44.8558 36.4512 44.5175 36.4512Z" fill="url(#paint15_linear_1104_6595)"/>
<path d="M38.2269 34.1523C38.0259 34.1523 37.825 34.0676 37.685 33.9008C37.4297 33.5997 37.4647 33.1475 37.7641 32.8908C38.6404 32.1388 39.422 31.757 40.087 31.757C40.6106 31.757 41.0643 31.9942 41.3651 32.4229C41.5919 32.7461 41.5141 33.1931 41.1927 33.4212C40.8712 33.6493 40.4266 33.5724 40.1997 33.2479C40.1647 33.1983 40.1492 33.1892 40.087 33.1892C39.8562 33.1892 39.3688 33.3964 38.6896 33.979C38.5548 34.095 38.3902 34.151 38.2269 34.151V34.1523Z" fill="url(#paint16_linear_1104_6595)"/>
<path d="M47.3822 34.6671C47.5222 34.8144 47.7101 34.8887 47.8981 34.8887H47.8968C48.0743 34.8887 48.2506 34.8235 48.3893 34.6906C48.7406 34.353 49.0841 33.9647 49.4108 33.5372C49.6506 33.2231 49.591 32.7735 49.2786 32.5324C48.9662 32.2913 48.519 32.3513 48.2792 32.6654C47.9979 33.0342 47.7036 33.3665 47.4055 33.6532C47.1216 33.9269 47.1099 34.3804 47.3822 34.6671Z" fill="url(#paint17_linear_1104_6595)"/>
<path fill-rule="evenodd" clip-rule="evenodd" d="M8.95475 15.0818C8.95475 16.4818 7.81987 17.6166 6.41995 17.6166C5.02003 17.6166 3.88514 16.4818 3.88514 15.0818C3.88514 13.6819 5.02003 12.547 6.41995 12.547C7.81987 12.547 8.95475 13.6819 8.95475 15.0818ZM7.94083 15.0818C7.94083 15.9218 7.25988 16.6027 6.41995 16.6027C5.58002 16.6027 4.89907 15.9218 4.89907 15.0818C4.89907 14.2419 5.58002 13.561 6.41995 13.561C7.25988 13.561 7.94083 14.2419 7.94083 15.0818Z" fill="url(#paint18_linear_1104_6595)"/>
<path fill-rule="evenodd" clip-rule="evenodd" d="M7.31902 24.618C9.08579 22.2769 12.8399 17.0105 12.8399 14.5315C12.8399 11.2898 9.9656 8.66188 6.41994 8.66188C2.87428 8.66188 0 11.2898 0 14.5315C0 17.0105 3.7541 22.2769 5.52086 24.618C6.06442 25.3383 6.41994 25.7817 6.41994 25.7817C6.41994 25.7817 6.77546 25.3383 7.31902 24.618ZM10.5601 17.0202C11.1554 15.8266 11.4132 14.9802 11.4132 14.5315C11.4132 12.1954 9.30064 10.0885 6.41994 10.0885C3.53924 10.0885 1.42665 12.1954 1.42665 14.5315C1.42665 14.9802 1.68445 15.8266 2.27979 17.0202C2.84403 18.1514 3.61029 19.4009 4.39695 20.5809C5.12097 21.6667 5.84714 22.6713 6.41994 23.4392C6.99274 22.6713 7.71891 21.6667 8.44293 20.5809C9.22959 19.4009 9.99585 18.1514 10.5601 17.0202Z" fill="url(#paint19_linear_1104_6595)"/>
<path fill-rule="evenodd" clip-rule="evenodd" d="M51.4468 20.3875C51.4468 21.4665 50.572 22.3413 49.493 22.3413C48.4139 22.3413 47.5392 21.4665 47.5392 20.3875C47.5392 19.3085 48.4139 18.4337 49.493 18.4337C50.572 18.4337 51.4468 19.3085 51.4468 20.3875ZM50.6652 20.3875C50.6652 21.0349 50.1404 21.5598 49.493 21.5598C48.8456 21.5598 48.3207 21.0349 48.3207 20.3875C48.3207 19.7401 48.8456 19.2152 49.493 19.2152C50.1404 19.2152 50.6652 19.7401 50.6652 20.3875Z" fill="url(#paint20_linear_1104_6595)"/>
<path fill-rule="evenodd" clip-rule="evenodd" d="M50.1499 27.3552C51.4408 25.6447 54.1838 21.7967 54.1838 19.9854C54.1838 17.6168 52.0836 15.6967 49.493 15.6967C46.9023 15.6967 44.8021 17.6168 44.8021 19.9854C44.8021 21.7967 47.5451 25.6447 48.836 27.3552C49.2332 27.8815 49.493 28.2055 49.493 28.2055C49.493 28.2055 49.7527 27.8815 50.1499 27.3552ZM52.518 21.8038C52.953 20.9317 53.1414 20.3132 53.1414 19.9854C53.1414 18.2785 51.5978 16.7391 49.493 16.7391C47.3881 16.7391 45.8445 18.2785 45.8445 19.9854C45.8445 20.3132 46.0329 20.9317 46.4679 21.8038C46.8802 22.6303 47.44 23.5433 48.0148 24.4054C48.5438 25.1988 49.0744 25.9329 49.493 26.4939C49.9115 25.9329 50.4421 25.1988 50.9711 24.4054C51.5459 23.5433 52.1057 22.6303 52.518 21.8038Z" fill="url(#paint21_linear_1104_6595)"/>
<defs>
<linearGradient id="paint0_linear_1104_6595" x1="54.1838" y1="60.4592" x2="54.1838" y2="4.30548" gradientUnits="userSpaceOnUse">
<stop stop-color="#FFA072"/>
<stop offset="1" stop-color="#FFB152"/>
</linearGradient>
<linearGradient id="paint1_linear_1104_6595" x1="54.1838" y1="60.4592" x2="54.1838" y2="4.30548" gradientUnits="userSpaceOnUse">
<stop stop-color="#FFA072"/>
<stop offset="1" stop-color="#FFB152"/>
</linearGradient>
<linearGradient id="paint2_linear_1104_6595" x1="54.1838" y1="60.4592" x2="54.1838" y2="4.30548" gradientUnits="userSpaceOnUse">
<stop stop-color="#FFA072"/>
<stop offset="1" stop-color="#FFB152"/>
</linearGradient>
<linearGradient id="paint3_linear_1104_6595" x1="54.1838" y1="60.4592" x2="54.1838" y2="4.30548" gradientUnits="userSpaceOnUse">
<stop stop-color="#FFA072"/>
<stop offset="1" stop-color="#FFB152"/>
</linearGradient>
<linearGradient id="paint4_linear_1104_6595" x1="54.1838" y1="60.4592" x2="54.1838" y2="4.30548" gradientUnits="userSpaceOnUse">
<stop stop-color="#FFA072"/>
<stop offset="1" stop-color="#FFB152"/>
</linearGradient>
<linearGradient id="paint5_linear_1104_6595" x1="54.1838" y1="60.4592" x2="54.1838" y2="4.30548" gradientUnits="userSpaceOnUse">
<stop stop-color="#FFA072"/>
<stop offset="1" stop-color="#FFB152"/>
</linearGradient>
<linearGradient id="paint6_linear_1104_6595" x1="54.1838" y1="60.4592" x2="54.1838" y2="4.30548" gradientUnits="userSpaceOnUse">
<stop stop-color="#FFA072"/>
<stop offset="1" stop-color="#FFB152"/>
</linearGradient>
<linearGradient id="paint7_linear_1104_6595" x1="54.1838" y1="60.4592" x2="54.1838" y2="4.30548" gradientUnits="userSpaceOnUse">
<stop stop-color="#FFA072"/>
<stop offset="1" stop-color="#FFB152"/>
</linearGradient>
<linearGradient id="paint8_linear_1104_6595" x1="54.1838" y1="60.4592" x2="54.1838" y2="4.30548" gradientUnits="userSpaceOnUse">
<stop stop-color="#FFA072"/>
<stop offset="1" stop-color="#FFB152"/>
</linearGradient>
<linearGradient id="paint9_linear_1104_6595" x1="54.1838" y1="60.4592" x2="54.1838" y2="4.30548" gradientUnits="userSpaceOnUse">
<stop stop-color="#FFA072"/>
<stop offset="1" stop-color="#FFB152"/>
</linearGradient>
<linearGradient id="paint10_linear_1104_6595" x1="54.1838" y1="60.4592" x2="54.1838" y2="4.30548" gradientUnits="userSpaceOnUse">
<stop stop-color="#FFA072"/>
<stop offset="1" stop-color="#FFB152"/>
</linearGradient>
<linearGradient id="paint11_linear_1104_6595" x1="54.1838" y1="60.4592" x2="54.1838" y2="4.30548" gradientUnits="userSpaceOnUse">
<stop stop-color="#FFA072"/>
<stop offset="1" stop-color="#FFB152"/>
</linearGradient>
<linearGradient id="paint12_linear_1104_6595" x1="54.1838" y1="60.4592" x2="54.1838" y2="4.30548" gradientUnits="userSpaceOnUse">
<stop stop-color="#FFA072"/>
<stop offset="1" stop-color="#FFB152"/>
</linearGradient>
<linearGradient id="paint13_linear_1104_6595" x1="54.1838" y1="60.4592" x2="54.1838" y2="4.30548" gradientUnits="userSpaceOnUse">
<stop stop-color="#FFA072"/>
<stop offset="1" stop-color="#FFB152"/>
</linearGradient>
<linearGradient id="paint14_linear_1104_6595" x1="54.1838" y1="60.4592" x2="54.1838" y2="4.30548" gradientUnits="userSpaceOnUse">
<stop stop-color="#FFA072"/>
<stop offset="1" stop-color="#FFB152"/>
</linearGradient>
<linearGradient id="paint15_linear_1104_6595" x1="54.1838" y1="60.4592" x2="54.1838" y2="4.30548" gradientUnits="userSpaceOnUse">
<stop stop-color="#FFA072"/>
<stop offset="1" stop-color="#FFB152"/>
</linearGradient>
<linearGradient id="paint16_linear_1104_6595" x1="54.1838" y1="60.4592" x2="54.1838" y2="4.30548" gradientUnits="userSpaceOnUse">
<stop stop-color="#FFA072"/>
<stop offset="1" stop-color="#FFB152"/>
</linearGradient>
<linearGradient id="paint17_linear_1104_6595" x1="54.1838" y1="60.4592" x2="54.1838" y2="4.30548" gradientUnits="userSpaceOnUse">
<stop stop-color="#FFA072"/>
<stop offset="1" stop-color="#FFB152"/>
</linearGradient>
<linearGradient id="paint18_linear_1104_6595" x1="54.1838" y1="60.4592" x2="54.1838" y2="4.30548" gradientUnits="userSpaceOnUse">
<stop stop-color="#FFA072"/>
<stop offset="1" stop-color="#FFB152"/>
</linearGradient>
<linearGradient id="paint19_linear_1104_6595" x1="54.1838" y1="60.4592" x2="54.1838" y2="4.30548" gradientUnits="userSpaceOnUse">
<stop stop-color="#FFA072"/>
<stop offset="1" stop-color="#FFB152"/>
</linearGradient>
<linearGradient id="paint20_linear_1104_6595" x1="54.1838" y1="60.4592" x2="54.1838" y2="4.30548" gradientUnits="userSpaceOnUse">
<stop stop-color="#FFA072"/>
<stop offset="1" stop-color="#FFB152"/>
</linearGradient>
<linearGradient id="paint21_linear_1104_6595" x1="54.1838" y1="60.4592" x2="54.1838" y2="4.30548" gradientUnits="userSpaceOnUse">
<stop stop-color="#FFA072"/>
<stop offset="1" stop-color="#FFB152"/>
</linearGradient>
</defs>
</svg>
